# xmcd
#
# Track frame offsets:
#	150
#	43449
#	100203
#	123551
#	154710
#	178925
#	205086
#	245743
#	275247
#
# Disc length: 3973 seconds
#
# Revision: 1
# Processed by: cddbd v1.4PL0 Copyright (c) Steve Scherf et al.
# Submitted via: audiograbber 1.81.03
#
DISCID=8c0f8309
DTITLE=Jimi Hendrix - Band of Gypsys
DYEAR=1970
DGENRE=
TTITLE0=Who knows
TTITLE1=Machine gun
TTITLE2=Them changes
TTITLE3=Power of love
TTITLE4=Message to love
TTITLE5=We gotta live together
TTITLE6=Hear my train
TTITLE7=Foxy lady
TTITLE8=Stop
EXTD=
EXTT0=
EXTT1=
EXTT2=
EXTT3=
EXTT4=
EXTT5=
EXTT6=
EXTT7=
EXTT8=
PLAYORDER=
